<svg width="40" height="40" viewBox="0 0 40 40" fill="none" xmlns="http://www.w3.org/2000/svg">
<g clip-path="url(#clip0_20_23)">
<path d="M40 37.6C40 38.2365 39.7471 38.847 39.2971 39.2971C38.847 39.7471 38.2365 40 37.6 40H2.4C1.76348 40 1.15303 39.7471 0.702944 39.2971C0.252856 38.847 0 38.2365 0 37.6L0 2.4C0 1.76348 0.252856 1.15303 0.702944 0.702944C1.15303 0.252856 1.76348 0 2.4 0L37.6 0C38.2365 0 38.847 0.252856 39.2971 0.702944C39.7471 1.15303 40 1.76348 40 2.4V37.6Z" fill="#E59541"/>
<path fill-rule="evenodd" clip-rule="evenodd" d="M27.3976 4.3388L20.0828 0H29.836L27.3976 4.3388ZM13.5328 0C13.448 0.3652 13.3136 0.724 13.122 1.0648L8.4236 9.428L0.1772 4.5368L0 4.4192V2.4C0 1.76348 0.252856 1.15303 0.702944 0.702944C1.15303 0.252856 1.76348 0 2.4 0L13.5328 0ZM1.0632 19.9176L1.8452 18.526C2.09805 18.0703 2.44003 17.67 2.85076 17.3492C3.26149 17.0284 3.73258 16.7935 4.23598 16.6585C4.73939 16.5235 5.26481 16.4912 5.78096 16.5634C6.29711 16.6357 6.79344 16.8111 7.2404 17.0792C9.1372 18.2048 9.8 20.6776 8.7188 22.6024L4.0204 30.9656L0 28.5812V19.2872L1.0632 19.9176V19.9176ZM8.8668 36.9992C9.11965 36.5435 9.46161 36.1434 9.87231 35.8225C10.283 35.5017 10.7541 35.2669 11.2574 35.1319C11.7608 34.9969 12.2861 34.9645 12.8023 35.0368C13.3184 35.109 13.8147 35.2844 14.2616 35.5524L15.6344 36.3656L16.4168 34.974C16.6696 34.5182 17.0115 34.118 17.4222 33.7971C17.8329 33.4763 18.3039 33.2413 18.8073 33.1063C19.3107 32.9713 19.8361 32.939 20.3523 33.0113C20.8684 33.0836 21.3647 33.2591 21.8116 33.5272C23.7084 34.6536 24.3716 37.1256 23.2904 39.0508L22.758 40H8.4756C8.2284 39.0164 8.3372 37.942 8.8668 36.9992V36.9992ZM22.9952 25.8764L14.7488 20.9852C12.8504 19.8592 12.1896 17.3864 13.27 15.4616C13.5229 15.0059 13.8648 14.6058 14.2755 14.285C14.6862 13.9641 15.1573 13.7293 15.6606 13.5943C16.164 13.4593 16.6893 13.4269 17.2055 13.4992C17.7216 13.5714 18.2179 13.7468 18.6648 14.0148L20.0376 14.8284L20.82 13.4368C21.0729 12.9811 21.4149 12.5809 21.8256 12.2601C22.2363 11.9393 22.7074 11.7044 23.2108 11.5694C23.7142 11.4344 24.2396 11.402 24.7557 11.4742C25.2718 11.5464 25.7682 11.7216 26.2152 11.9896C28.112 13.1164 28.7752 15.5888 27.694 17.514L22.9952 25.8764V25.8764ZM33.7236 15.8964C31.8252 14.7704 31.1644 12.2976 32.2448 10.3724C32.4976 9.91668 32.8395 9.51649 33.2501 9.19566C33.6608 8.87483 34.1318 8.63992 34.6352 8.50493C35.1385 8.36993 35.6639 8.3376 36.1799 8.40987C36.696 8.48215 37.1923 8.65754 37.6392 8.9256L39.012 9.7392L39.7948 8.3476C39.858 8.2344 39.9276 8.126 40.0004 8.0216V19.6196L33.7236 15.8964V15.8964ZM29.3204 37.4336C27.422 36.308 26.7612 33.8352 27.8416 31.91C28.0944 31.4542 28.4364 31.054 28.8471 30.7331C29.2578 30.4122 29.7289 30.1773 30.2323 30.0423C30.7358 29.9073 31.2612 29.875 31.7774 29.9473C32.2935 30.0196 32.7899 30.1951 33.2368 30.4632L34.6096 31.2772L35.3916 29.8852C35.8298 29.0953 36.5299 28.483 37.3712 28.154C38.2125 27.825 39.1422 27.7998 40 28.0828V37.5992C40 37.764 39.9828 37.9248 39.9516 38.0796L39.2432 39.3412C38.8001 39.7632 38.2119 39.999 37.6 40H33.646L29.3204 37.4336V37.4336ZM2.8372 38.6164C3.40887 38.9558 3.88796 39.4311 4.232 40H2.4C1.2628 40 0.3156 39.2072 0.068 38.1452C1.01753 37.9518 2.00508 38.1198 2.8372 38.6164V38.6164Z" fill="#E5852C"/>
<path opacity="0.15" fill-rule="evenodd" clip-rule="evenodd" d="M28.0465 18.8927C28.5881 18.5995 29.0365 18.2719 29.4061 17.8987C31.7585 15.5211 31.7885 11.6835 29.4733 9.34475C28.9287 8.79182 28.2791 8.35326 27.5627 8.0548C26.8462 7.75635 26.0774 7.60402 25.3013 7.60675C23.6841 7.60675 22.1593 8.24795 21.0053 9.41315C20.6269 9.79595 20.2965 10.2627 20.0009 10.8287C19.7049 10.2607 19.3737 9.79115 18.9937 9.40755C17.8409 8.24275 16.3153 7.59595 14.6985 7.59595C13.1177 7.59595 11.6365 8.20155 10.5265 9.32195C8.21092 11.6615 8.24092 15.4759 10.5941 17.8539C10.9769 18.2411 11.4465 18.5703 12.0141 18.8619C11.4897 19.1355 11.0165 19.4527 10.6389 19.8223C9.46492 20.9743 8.81852 22.5059 8.81852 24.1351C8.81892 25.7283 9.44172 27.2171 10.5721 28.3259C11.6765 29.4095 13.1449 30.0063 14.7065 30.0063C16.3049 30.0063 17.8169 29.3859 18.9649 28.2599C19.3665 27.8659 19.7077 27.3683 19.9993 26.8175C20.2905 27.3683 20.6317 27.8659 21.0333 28.2595C22.1817 29.3859 23.6941 30.0063 25.2921 30.0063C26.8533 30.0063 28.3221 29.4095 29.4269 28.3259C30.5569 27.2175 31.1797 25.7291 31.1801 24.1351C31.1801 22.5063 30.5341 20.9751 29.3597 19.8219C28.9981 19.4655 28.5465 19.1587 28.0465 18.8927V18.8927ZM12.7857 11.5803C13.8613 10.5227 15.6365 10.5539 16.7505 11.6487C17.9209 12.7987 18.4101 17.1903 18.4017 17.1995C18.3929 17.2083 14.0253 16.6275 12.8553 15.4775C11.7409 14.3823 11.7101 12.6375 12.7857 11.5803ZM16.7189 25.6087C15.6149 26.6447 13.8569 26.6731 12.7913 25.6731C11.7261 24.6731 11.7565 23.0223 12.8601 21.9863C14.0189 20.8987 18.3957 20.3963 18.4045 20.4047C18.4129 20.4131 17.8781 24.5211 16.7189 25.6087ZM27.2201 25.6735C26.1525 26.6735 24.3909 26.6451 23.2849 25.6091C22.1233 24.5211 21.5873 20.4135 21.5961 20.4051C21.6045 20.3967 25.9897 20.8991 27.1517 21.9867C28.2573 23.0227 28.2877 24.6735 27.2201 25.6735ZM27.1521 15.5143C25.9909 16.6735 21.6077 17.2087 21.5989 17.1995C21.5901 17.1907 22.1257 12.8143 23.2869 11.6551C24.3925 10.5515 26.1537 10.5211 27.2209 11.5867C28.2881 12.6519 28.2573 14.4103 27.1521 15.5143Z" fill="black"/>
<path fill-rule="evenodd" clip-rule="evenodd" d="M40 15.6H29.9924C31.7368 13.2 31.5744 9.8672 29.4732 7.7444C28.9286 7.19147 28.279 6.75291 27.5626 6.45446C26.8461 6.156 26.0773 6.00367 25.3012 6.0064C23.9468 6.0064 22.6604 6.4612 21.5996 7.2916V0H18.3996V7.2856C17.3392 6.454 16.052 5.9952 14.6984 5.9952C13.1176 5.9952 11.6364 6.6008 10.5264 7.7208C8.4124 9.858 8.2604 13.2 10.0408 15.6H0V18.8H10.1264C9.27942 19.8603 8.81842 21.1773 8.8192 22.5344C8.8196 24.1276 9.4424 25.6164 10.5728 26.7252C11.6772 27.8088 13.1456 28.4056 14.7072 28.4056C16.0564 28.4056 17.3408 27.9592 18.4 27.1444V40H21.6V27.144C22.6572 27.9619 23.9561 28.4055 25.2928 28.4052C26.854 28.4052 28.3228 27.8084 29.4276 26.7248C30.5576 25.6164 31.1804 24.128 31.1808 22.534C31.1808 21.1632 30.7184 19.8648 29.8736 18.7996H40V15.6ZM23.2868 10.0552C24.3924 8.9516 26.1536 8.9212 27.2208 9.9868C28.288 11.0524 28.2572 12.8108 27.152 13.9144C25.9936 15.0704 21.6324 15.6056 21.6 15.5996V15.5824C21.6276 15.2912 22.166 11.1744 23.2868 10.0552V10.0552ZM12.7856 9.9804C13.8612 8.9228 15.6364 8.954 16.7504 10.0488C17.8752 11.154 18.3704 15.25 18.4 15.5768V15.5996C18.3592 15.604 14.0208 15.0236 12.8552 13.8776C11.7408 12.7824 11.71 11.0376 12.7856 9.9804ZM16.7188 24.0088C15.6148 25.0448 13.8568 25.0732 12.7912 24.0732C11.726 23.0732 11.7564 21.4224 12.86 20.3864C14.0072 19.31 18.3056 18.8072 18.4004 18.8048V18.848C18.3476 19.2864 17.81 22.9848 16.7188 24.0088V24.0088ZM27.22 24.0736C26.1524 25.0736 24.3908 25.0452 23.2848 24.0092C22.1884 22.982 21.6496 19.2668 21.6 18.8456V18.8052C21.6868 18.8064 26.0004 19.3092 27.1516 20.3868C28.2572 21.4228 28.2876 23.0736 27.22 24.0736V24.0736Z" fill="white"/>
<path opacity="0.2" fill-rule="evenodd" clip-rule="evenodd" d="M37.6 40H2.4C1.0748 40 0 38.9252 0 37.5996V32C0 32.6365 0.252856 33.247 0.702944 33.6971C1.15303 34.1471 1.76348 34.4 2.4 34.4H37.6C38.2365 34.4 38.847 34.1471 39.2971 33.6971C39.7471 33.247 40 32.6365 40 32V37.5996C40 38.2362 39.7472 38.8466 39.2971 39.2968C38.847 39.7469 38.2366 39.9999 37.6 40V40Z" fill="black"/>
</g>
<defs>
<clipPath id="clip0_20_23">
<rect width="40" height="40" fill="white"/>
</clipPath>
</defs>
</svg>
