<svg width="80" height="80" viewBox="0 0 80 80" fill="none" xmlns="http://www.w3.org/2000/svg">
<g filter="url(#filter0_d_15_409)">
<path d="M6.45833 71L73.5417 71C74.3471 71 75 70.3471 75 69.5417L75 2.45833C75 1.65292 74.3471 1 73.5417 1L6.45833 1C5.65292 1 5 1.65292 5 2.45833L5 69.5417C5 70.3471 5.65292 71 6.45833 71Z" fill="#007BB0"/>
<path d="M40.0465 19.0134C36.8249 19.0134 34.2132 21.6251 34.2132 24.8467C34.2132 28.0684 36.8249 30.6801 40.0465 30.6801C43.2682 30.6801 45.8799 28.0684 45.8799 24.8467C45.8799 21.6251 43.2682 19.0134 40.0465 19.0134Z" fill="white"/>
<path d="M40.0469 24.8467V26.3051Z" fill="black"/>
<path d="M40.0469 24.8467V26.3051" stroke="#D22F27" stroke-width="2" stroke-linecap="round"/>
<path d="M66.0283 66.103C65.8972 66.3128 65.715 66.4857 65.4986 66.6056C65.2823 66.7255 65.039 66.7885 64.7917 66.7885C64.5443 66.7885 64.301 66.7255 64.0847 66.6056C63.8684 66.4857 63.6861 66.3128 63.555 66.103L63.0154 65.2382C62.8889 65.0355 62.7144 64.8669 62.5074 64.7474C62.3004 64.6278 62.0672 64.561 61.8283 64.5528L60.8104 64.5178C60.5632 64.5092 60.3222 64.4378 60.1101 64.3104C59.8981 64.183 59.7219 64.0037 59.5983 63.7895C59.4746 63.5752 59.4074 63.333 59.4032 63.0857C59.3989 62.8383 59.4576 62.5939 59.5737 62.3755L60.0521 61.4772C60.1644 61.2662 60.2232 61.0308 60.2232 60.7918C60.2232 60.5527 60.1644 60.3174 60.0521 60.1064L59.5737 59.208C59.4572 58.9896 59.3983 58.745 59.4024 58.4975C59.4065 58.2499 59.4736 58.0075 59.5973 57.793C59.721 57.5786 59.8973 57.3991 60.1095 57.2716C60.3218 57.1441 60.563 57.0728 60.8104 57.0643L61.8283 57.0293C62.0672 57.0211 62.3004 56.9543 62.5074 56.8347C62.7144 56.7152 62.8889 56.5466 63.0154 56.3439L63.555 55.4805C63.6861 55.2708 63.8684 55.0978 64.0847 54.9779C64.301 54.858 64.5443 54.7951 64.7917 54.7951C65.039 54.7951 65.2823 54.858 65.4986 54.9779C65.715 55.0978 65.8972 55.2708 66.0283 55.4805L66.5679 56.3453C66.6945 56.5481 66.8689 56.7167 67.0759 56.8362C67.2829 56.9557 67.5161 57.0225 67.755 57.0307L68.7729 57.0657C69.0202 57.0744 69.2611 57.1457 69.4732 57.2732C69.6852 57.4006 69.8614 57.5798 69.9851 57.7941C70.1087 58.0083 70.1759 58.2505 70.1802 58.4979C70.1845 58.7452 70.1258 58.9896 70.0096 59.208L69.5312 60.1064C69.4189 60.3174 69.3601 60.5527 69.3601 60.7918C69.3601 61.0308 69.4189 61.2662 69.5312 61.4772L70.0096 62.3755C70.1261 62.594 70.1851 62.8385 70.181 63.0861C70.1768 63.3336 70.1098 63.5761 69.986 63.7905C69.8623 64.005 69.686 64.1844 69.4738 64.3119C69.2616 64.4394 69.0204 64.5108 68.7729 64.5193L67.755 64.5543C67.5161 64.5625 67.2829 64.6293 67.0759 64.7488C66.8689 64.8683 66.6945 65.0369 66.5679 65.2397L66.0283 66.103V66.103Z" fill="#A57939"/>
<path d="M35.625 47.6665C35.625 44.4436 24.2646 41.8332 21.0417 41.8332C19.4946 41.8332 18.0108 42.4478 16.9169 43.5418C15.8229 44.6357 15.2083 46.1194 15.2083 47.6665C15.2083 49.2136 15.8229 50.6974 16.9169 51.7913C18.0108 52.8853 19.4946 53.4999 21.0417 53.4999C24.2646 53.4999 35.625 50.8895 35.625 47.6665Z" fill="#A57939"/>
<path d="M31.3201 32.4067C31.3201 29.1837 19.9597 26.5733 16.7367 26.5733C15.1896 26.5733 13.7059 27.1879 12.6119 28.2819C11.518 29.3758 10.9034 30.8596 10.9034 32.4067C10.9034 33.9538 11.518 35.4375 12.6119 36.5314C13.7059 37.6254 15.1896 38.24 16.7367 38.24C19.9597 38.24 31.3201 35.6296 31.3201 32.4067Z" fill="#A57939"/>
<path d="M49.9285 32.4067C49.9285 35.6296 61.2889 38.24 64.5118 38.24C66.0589 38.24 67.5426 37.6254 68.6366 36.5315C69.7305 35.4375 70.3451 33.9538 70.3451 32.4067C70.3451 30.8596 69.7305 29.3759 68.6366 28.2819C67.5426 27.1879 66.0589 26.5734 64.5118 26.5734C61.2889 26.5734 49.9285 29.1838 49.9285 32.4067Z" fill="#A57939"/>
<path d="M31.3201 16.4467C31.3201 13.2238 19.9597 10.6134 16.7367 10.6134C15.1896 10.6134 13.7059 11.2279 12.6119 12.3219C11.518 13.4159 10.9034 14.8996 10.9034 16.4467C10.9034 17.9938 11.518 19.4775 12.6119 20.5715C13.7059 21.6654 15.1896 22.28 16.7367 22.28C19.9597 22.28 31.3201 19.6696 31.3201 16.4467Z" fill="#A57939"/>
<path d="M49.8235 16.4467C49.8235 19.6697 61.1839 22.2801 64.4068 22.2801C65.9539 22.2801 67.4376 21.6655 68.5316 20.5715C69.6256 19.4776 70.2402 17.9938 70.2402 16.4467C70.2402 14.8996 69.6256 13.4159 68.5316 12.3219C67.4376 11.228 65.9539 10.6134 64.4068 10.6134C61.1839 10.6134 49.8235 13.2238 49.8235 16.4467Z" fill="#A57939"/>
<path d="M14.4794 57.8751C12.4659 57.8751 10.8336 59.5074 10.8336 61.5209C10.8336 63.5345 12.4659 65.1667 14.4794 65.1667C16.4929 65.1667 18.1252 63.5345 18.1252 61.5209C18.1252 59.5074 16.4929 57.8751 14.4794 57.8751Z" fill="#D22F27"/>
<path d="M41.3942 57.2684C39.3807 57.2684 37.7484 58.9007 37.7484 60.9142C37.7484 62.9278 39.3807 64.5601 41.3942 64.5601C43.4077 64.5601 45.04 62.9278 45.04 60.9142C45.04 58.9007 43.4077 57.2684 41.3942 57.2684Z" fill="#D22F27"/>
<path d="M14.4794 57.875C12.4659 57.875 10.8336 59.5073 10.8336 61.5208C10.8336 63.5343 12.4659 65.1666 14.4794 65.1666C16.4929 65.1666 18.1252 63.5343 18.1252 61.5208C18.1252 59.5073 16.4929 57.875 14.4794 57.875Z" stroke="#D0CFCE" stroke-width="2"/>
<path d="M6.45833 71L73.5417 71C74.3471 71 75 70.3471 75 69.5417L75 2.45833C75 1.65292 74.3471 1 73.5417 1L6.45833 1C5.65292 1 5 1.65292 5 2.45833L5 69.5417C5 70.3471 5.65292 71 6.45833 71Z" stroke="black" stroke-width="2" stroke-linejoin="round"/>
<path d="M75 50.5834L57.5 50.5834" stroke="black" stroke-width="2"/>
<path d="M10.8333 50.5834H4.99992" stroke="black" stroke-width="2" stroke-linecap="round"/>
<path d="M75 8.29175L5 8.29175Z" fill="black"/>
<path d="M75 8.29175L5 8.29175" stroke="black" stroke-width="2"/>
<path d="M41.4584 54.9585C38.2368 54.9585 35.6251 57.5701 35.6251 60.7918C35.6251 64.0134 38.2368 66.6251 41.4584 66.6251C44.6801 66.6251 47.2917 64.0134 47.2917 60.7918C47.2917 57.5701 44.6801 54.9585 41.4584 54.9585Z" stroke="black" stroke-width="2"/>
<path d="M66.0283 66.103C65.8972 66.3128 65.715 66.4857 65.4986 66.6056C65.2823 66.7255 65.039 66.7885 64.7917 66.7885C64.5443 66.7885 64.301 66.7255 64.0847 66.6056C63.8684 66.4857 63.6861 66.3128 63.555 66.103L63.0154 65.2382C62.8889 65.0355 62.7144 64.8669 62.5074 64.7474C62.3004 64.6278 62.0672 64.561 61.8283 64.5528L60.8104 64.5178C60.5632 64.5092 60.3222 64.4378 60.1101 64.3104C59.8981 64.183 59.7219 64.0037 59.5983 63.7895C59.4746 63.5752 59.4074 63.333 59.4032 63.0857C59.3989 62.8383 59.4576 62.5939 59.5737 62.3755L60.0521 61.4772C60.1644 61.2662 60.2232 61.0308 60.2232 60.7918C60.2232 60.5527 60.1644 60.3174 60.0521 60.1064L59.5737 59.208C59.4572 58.9896 59.3983 58.745 59.4024 58.4975C59.4065 58.2499 59.4736 58.0075 59.5973 57.793C59.721 57.5786 59.8973 57.3991 60.1095 57.2716C60.3218 57.1441 60.563 57.0728 60.8104 57.0643L61.8283 57.0293C62.0672 57.0211 62.3004 56.9543 62.5074 56.8347C62.7144 56.7152 62.8889 56.5466 63.0154 56.3439L63.555 55.4805C63.6861 55.2708 63.8684 55.0978 64.0847 54.9779C64.301 54.858 64.5443 54.7951 64.7917 54.7951C65.039 54.7951 65.2823 54.858 65.4986 54.9779C65.715 55.0978 65.8972 55.2708 66.0283 55.4805L66.5679 56.3453C66.6945 56.5481 66.8689 56.7167 67.0759 56.8362C67.2829 56.9557 67.5161 57.0225 67.755 57.0307L68.7729 57.0657C69.0202 57.0744 69.2611 57.1457 69.4732 57.2732C69.6852 57.4006 69.8614 57.5798 69.9851 57.7941C70.1087 58.0083 70.1759 58.2505 70.1802 58.4979C70.1845 58.7452 70.1258 58.9896 70.0096 59.208L69.5312 60.1064C69.4189 60.3174 69.3601 60.5527 69.3601 60.7918C69.3601 61.0308 69.4189 61.2662 69.5312 61.4772L70.0096 62.3755C70.1261 62.594 70.1851 62.8385 70.181 63.0861C70.1768 63.3336 70.1098 63.5761 69.986 63.7905C69.8623 64.005 69.686 64.1844 69.4738 64.3119C69.2616 64.4394 69.0204 64.5108 68.7729 64.5193L67.755 64.5543C67.5161 64.5625 67.2829 64.6293 67.0759 64.7488C66.8689 64.8683 66.6945 65.0369 66.5679 65.2397L66.0283 66.103V66.103Z" stroke="black" stroke-width="2"/>
<path d="M35.625 47.6667C35.625 44.4438 24.2646 41.8333 21.0417 41.8333C19.4946 41.8333 18.0108 42.4479 16.9169 43.5419C15.8229 44.6358 15.2083 46.1196 15.2083 47.6667C15.2083 49.2138 15.8229 50.6975 16.9169 51.7915C18.0108 52.8854 19.4946 53.5 21.0417 53.5C24.2646 53.5 35.625 50.8896 35.625 47.6667Z" stroke="black" stroke-width="2"/>
<path d="M14.4792 57.875C15.4461 57.875 16.3734 58.2591 17.0572 58.9428C17.7409 59.6265 18.125 60.5539 18.125 61.5208C18.125 62.4877 17.7409 63.4151 17.0572 64.0988C16.3734 64.7825 15.4461 65.1666 14.4792 65.1666" stroke="black" stroke-width="2" stroke-linecap="round"/>
</g>
<defs>
<filter id="filter0_d_15_409" x="0" y="0" width="80" height="80" filterUnits="userSpaceOnUse" color-interpolation-filters="sRGB">
<feFlood flood-opacity="0" result="BackgroundImageFix"/>
<feColorMatrix in="SourceAlpha" type="matrix" values="0 0 0 0 0 0 0 0 0 0 0 0 0 0 0 0 0 0 127 0" result="hardAlpha"/>
<feOffset dy="4"/>
<feGaussianBlur stdDeviation="2"/>
<feComposite in2="hardAlpha" operator="out"/>
<feColorMatrix type="matrix" values="0 0 0 0 0 0 0 0 0 0 0 0 0 0 0 0 0 0 0.25 0"/>
<feBlend mode="normal" in2="BackgroundImageFix" result="effect1_dropShadow_15_409"/>
<feBlend mode="normal" in="SourceGraphic" in2="effect1_dropShadow_15_409" result="shape"/>
</filter>
</defs>
</svg>
