<svg width="80" height="80" viewBox="0 0 80 80" fill="none" xmlns="http://www.w3.org/2000/svg">
<g filter="url(#filter0_d_10_353)">
<path d="M73.5417 1H6.45833C5.65292 1 5 1.65292 5 2.45833V69.5417C5 70.3471 5.65292 71 6.45833 71H73.5417C74.3471 71 75 70.3471 75 69.5417V2.45833C75 1.65292 74.3471 1 73.5417 1Z" fill="#9B9B9A"/>
<path d="M22.5 21.4166H56.0417L53.125 33.0833H25.4167L22.5 21.4166Z" fill="#D0CFCE"/>
<path d="M38.5418 17.0417C41.7635 17.0417 44.3752 14.4301 44.3752 11.2084C44.3752 7.98673 41.7635 5.37506 38.5418 5.37506C35.3202 5.37506 32.7085 7.98673 32.7085 11.2084C32.7085 14.4301 35.3202 17.0417 38.5418 17.0417Z" fill="white"/>
<path d="M38.5415 11.2084V9.75006Z" fill="black"/>
<path d="M38.5415 11.2084V9.75006" stroke="#D22F27" stroke-width="2" stroke-linecap="round"/>
<path d="M13.9717 5.89709C14.1028 5.68735 14.285 5.51439 14.5014 5.39448C14.7177 5.27458 14.961 5.21167 15.2083 5.21167C15.4557 5.21167 15.699 5.27458 15.9153 5.39448C16.1316 5.51439 16.3139 5.68735 16.445 5.89709L16.9846 6.76188C17.1111 6.96467 17.2856 7.13324 17.4926 7.25276C17.6996 7.37228 17.9328 7.43909 18.1717 7.4473L19.1896 7.4823C19.4368 7.49093 19.6778 7.56231 19.8899 7.68973C20.1019 7.81714 20.2781 7.99641 20.4017 8.21066C20.5254 8.42492 20.5926 8.66711 20.5968 8.91446C20.6011 9.16181 20.5424 9.40618 20.4263 9.62459L19.9479 10.5229C19.8356 10.7339 19.7768 10.9693 19.7768 11.2083C19.7768 11.4474 19.8356 11.6828 19.9479 11.8938L20.4263 12.7921C20.5428 13.0106 20.6017 13.2551 20.5976 13.5026C20.5935 13.7502 20.5264 13.9926 20.4027 14.2071C20.279 14.4215 20.1027 14.601 19.8905 14.7285C19.6782 14.856 19.437 14.9273 19.1896 14.9358L18.1717 14.9708C17.9328 14.9791 17.6996 15.0459 17.4926 15.1654C17.2856 15.2849 17.1111 15.4535 16.9846 15.6563L16.445 16.5196C16.3139 16.7293 16.1316 16.9023 15.9153 17.0222C15.699 17.1421 15.4557 17.205 15.2083 17.205C14.961 17.205 14.7177 17.1421 14.5014 17.0222C14.285 16.9023 14.1028 16.7293 13.9717 16.5196L13.4321 15.6548C13.3055 15.452 13.1311 15.2835 12.9241 15.1639C12.7171 15.0444 12.4839 14.9776 12.245 14.9694L11.2271 14.9344C10.9798 14.9258 10.7389 14.8544 10.5268 14.727C10.3148 14.5995 10.1386 14.4203 10.0149 14.206C9.89126 13.9918 9.82412 13.7496 9.81983 13.5022C9.81554 13.2549 9.87424 13.0105 9.99042 12.7921L10.4688 11.8938C10.5811 11.6828 10.6399 11.4474 10.6399 11.2083C10.6399 10.9693 10.5811 10.7339 10.4688 10.5229L9.99042 9.62459C9.87391 9.40613 9.81493 9.16161 9.81905 8.91405C9.82317 8.6665 9.89025 8.42407 10.014 8.2096C10.1377 7.99514 10.314 7.81571 10.5262 7.68821C10.7384 7.56071 10.9796 7.48935 11.2271 7.48084L12.245 7.44584C12.4839 7.43763 12.7171 7.37082 12.9241 7.2513C13.1311 7.13178 13.3055 6.96321 13.4321 6.76043L13.9717 5.89709V5.89709Z" fill="#A57939"/>
<path d="M44.375 24.3335C44.375 27.5564 55.7354 30.1668 58.9583 30.1668C60.5054 30.1668 61.9892 29.5522 63.0831 28.4582C64.1771 27.3643 64.7917 25.8806 64.7917 24.3335C64.7917 22.7864 64.1771 21.3026 63.0831 20.2087C61.9892 19.1147 60.5054 18.5001 58.9583 18.5001C55.7354 18.5001 44.375 21.1105 44.375 24.3335Z" fill="#A57939"/>
<path d="M65.5208 14.125C67.5344 14.125 69.1667 12.4927 69.1667 10.4791C69.1667 8.46561 67.5344 6.83331 65.5208 6.83331C63.5073 6.83331 61.875 8.46561 61.875 10.4791C61.875 12.4927 63.5073 14.125 65.5208 14.125Z" fill="#D22F27"/>
<path d="M65.5208 14.125C67.5344 14.125 69.1667 12.4927 69.1667 10.4791C69.1667 8.46561 67.5344 6.83331 65.5208 6.83331C63.5073 6.83331 61.875 8.46561 61.875 10.4791C61.875 12.4927 63.5073 14.125 65.5208 14.125Z" stroke="#D0CFCE" stroke-width="2"/>
<path d="M73.5417 1H6.45833C5.65292 1 5 1.65292 5 2.45833V69.5417C5 70.3471 5.65292 71 6.45833 71H73.5417C74.3471 71 75 70.3471 75 69.5417V2.45833C75 1.65292 74.3471 1 73.5417 1Z" stroke="black" stroke-width="2" stroke-linejoin="round"/>
<path d="M5 21.4167H22.5" stroke="black" stroke-width="2"/>
<path d="M69.1665 21.4167H74.9998" stroke="black" stroke-width="2" stroke-linecap="round"/>
<path d="M5 63.7083H75Z" fill="black"/>
<path d="M5 63.7083H75" stroke="black" stroke-width="2"/>
<path d="M46.5625 21.4167H22.5L25.4167 33.0833H51.6667" stroke="black" stroke-width="2" stroke-linecap="round" stroke-linejoin="round"/>
<path d="M38.5418 17.0417C41.7635 17.0417 44.3752 14.43 44.3752 11.2083C44.3752 7.98667 41.7635 5.375 38.5418 5.375C35.3202 5.375 32.7085 7.98667 32.7085 11.2083C32.7085 14.43 35.3202 17.0417 38.5418 17.0417Z" stroke="black" stroke-width="2"/>
<path d="M13.9717 5.89709C14.1028 5.68735 14.285 5.51439 14.5014 5.39448C14.7177 5.27458 14.961 5.21167 15.2083 5.21167C15.4557 5.21167 15.699 5.27458 15.9153 5.39448C16.1316 5.51439 16.3139 5.68735 16.445 5.89709L16.9846 6.76188C17.1111 6.96467 17.2856 7.13324 17.4926 7.25276C17.6996 7.37228 17.9328 7.43909 18.1717 7.4473L19.1896 7.4823C19.4368 7.49093 19.6778 7.56231 19.8898 7.68973C20.1019 7.81714 20.278 7.99641 20.4017 8.21066C20.5254 8.42491 20.5926 8.66711 20.5968 8.91446C20.6011 9.16181 20.5424 9.40618 20.4263 9.62459L19.9479 10.5229C19.8356 10.7339 19.7768 10.9693 19.7768 11.2083C19.7768 11.4474 19.8356 11.6828 19.9479 11.8938L20.4263 12.7921C20.5428 13.0106 20.6017 13.2551 20.5976 13.5026C20.5935 13.7502 20.5264 13.9926 20.4027 14.2071C20.279 14.4215 20.1027 14.601 19.8905 14.7285C19.6782 14.856 19.437 14.9273 19.1896 14.9358L18.1717 14.9708C17.9328 14.9791 17.6996 15.0459 17.4926 15.1654C17.2856 15.2849 17.1111 15.4535 16.9846 15.6563L16.445 16.5196C16.3139 16.7293 16.1316 16.9023 15.9153 17.0222C15.699 17.1421 15.4557 17.205 15.2083 17.205C14.961 17.205 14.7177 17.1421 14.5014 17.0222C14.285 16.9023 14.1028 16.7293 13.9717 16.5196L13.4321 15.6548C13.3055 15.452 13.1311 15.2834 12.9241 15.1639C12.7171 15.0444 12.4839 14.9776 12.245 14.9694L11.2271 14.9344C10.9798 14.9258 10.7389 14.8544 10.5268 14.727C10.3148 14.5995 10.1386 14.4203 10.0149 14.206C9.89126 13.9918 9.82412 13.7496 9.81983 13.5022C9.81554 13.2549 9.87424 13.0105 9.99042 12.7921L10.4688 11.8938C10.5811 11.6828 10.6399 11.4474 10.6399 11.2083C10.6399 10.9693 10.5811 10.7339 10.4688 10.5229L9.99042 9.62459C9.87391 9.40613 9.81493 9.16161 9.81905 8.91405C9.82317 8.6665 9.89025 8.42407 10.014 8.2096C10.1377 7.99514 10.314 7.8157 10.5262 7.68821C10.7384 7.56071 10.9796 7.48935 11.2271 7.48084L12.245 7.44584C12.4839 7.43763 12.7171 7.37082 12.9241 7.2513C13.1311 7.13178 13.3055 6.96321 13.4321 6.76043L13.9717 5.89709V5.89709Z" stroke="black" stroke-width="2"/>
<path d="M44.375 24.3333C44.375 27.5562 55.7354 30.1666 58.9583 30.1666C60.5054 30.1666 61.9892 29.552 63.0831 28.4581C64.1771 27.3641 64.7917 25.8804 64.7917 24.3333C64.7917 22.7862 64.1771 21.3024 63.0831 20.2085C61.9892 19.1145 60.5054 18.4999 58.9583 18.4999C55.7354 18.4999 44.375 21.1104 44.375 24.3333Z" stroke="black" stroke-width="2"/>
<path d="M65.5208 14.125C64.5539 14.125 63.6266 13.7409 62.9428 13.0571C62.2591 12.3734 61.875 11.4461 61.875 10.4791C61.875 9.51221 62.2591 8.58488 62.9428 7.90115C63.6266 7.21743 64.5539 6.83331 65.5208 6.83331" stroke="black" stroke-width="2" stroke-linecap="round"/>
</g>
<defs>
<filter id="filter0_d_10_353" x="0" y="0" width="80" height="80" filterUnits="userSpaceOnUse" color-interpolation-filters="sRGB">
<feFlood flood-opacity="0" result="BackgroundImageFix"/>
<feColorMatrix in="SourceAlpha" type="matrix" values="0 0 0 0 0 0 0 0 0 0 0 0 0 0 0 0 0 0 127 0" result="hardAlpha"/>
<feOffset dy="4"/>
<feGaussianBlur stdDeviation="2"/>
<feComposite in2="hardAlpha" operator="out"/>
<feColorMatrix type="matrix" values="0 0 0 0 0 0 0 0 0 0 0 0 0 0 0 0 0 0 0.25 0"/>
<feBlend mode="normal" in2="BackgroundImageFix" result="effect1_dropShadow_10_353"/>
<feBlend mode="normal" in="SourceGraphic" in2="effect1_dropShadow_10_353" result="shape"/>
</filter>
</defs>
</svg>
